<mxfile host="65bd71144e">
    <diagram id="3i0krbR3AakGJBCErde_" name="Brainstorming">
        <mxGraphModel dx="548" dy="450" grid="1" gridSize="10" guides="1" tooltips="1" connect="1" arrows="1" fold="1" page="1" pageScale="1" pageWidth="827" pageHeight="1169" math="0" shadow="0">
            <root>
                <mxCell id="0"/>
                <mxCell id="1" parent="0"/>
                <mxCell id="3" value="&lt;h3&gt;&lt;b&gt;&lt;font color=&quot;#ff66b3&quot; style=&quot;font-size: 18px&quot;&gt;- Transport Company -&lt;/font&gt;&lt;/b&gt;&lt;/h3&gt;" style="text;html=1;strokeColor=none;fillColor=none;align=center;verticalAlign=middle;whiteSpace=wrap;rounded=0;" vertex="1" parent="1">
                    <mxGeometry x="190" y="270" width="210" height="80" as="geometry"/>
                </mxCell>
                <mxCell id="eoHbKXcCZWffH2MOyTmi-7" value="Bus" style="ellipse;shape=cloud;whiteSpace=wrap;html=1;fontColor=#FF66B3;" vertex="1" parent="1">
                    <mxGeometry x="340" y="130" width="120" height="80" as="geometry"/>
                </mxCell>
                <mxCell id="eoHbKXcCZWffH2MOyTmi-8" value="Route" style="ellipse;shape=cloud;whiteSpace=wrap;html=1;fontColor=#FF66B3;" vertex="1" parent="1">
                    <mxGeometry x="120" y="130" width="120" height="80" as="geometry"/>
                </mxCell>
            </root>
        </mxGraphModel>
    </diagram>
    <diagram id="NCjHek5yrXcbpHjp7_MJ" name="Tables">
        <mxGraphModel dx="548" dy="450" grid="1" gridSize="10" guides="1" tooltips="1" connect="1" arrows="1" fold="1" page="1" pageScale="1" pageWidth="827" pageHeight="1169" math="0" shadow="0">
            <root>
                <mxCell id="slJAHKkvd8Bo7gFiSA_M-0"/>
                <mxCell id="slJAHKkvd8Bo7gFiSA_M-1" parent="slJAHKkvd8Bo7gFiSA_M-0"/>
                <mxCell id="cmdRNotz22MEFSCu1hS4-0" value="Bus" style="swimlane;fontStyle=1;align=center;verticalAlign=top;childLayout=stackLayout;horizontal=1;startSize=26;horizontalStack=0;resizeParent=1;resizeParentMax=0;resizeLast=0;collapsible=1;marginBottom=0;fontSize=18;fontColor=#FF66B3;" vertex="1" parent="slJAHKkvd8Bo7gFiSA_M-1">
                    <mxGeometry x="70" y="70" width="160" height="138" as="geometry"/>
                </mxCell>
                <mxCell id="cmdRNotz22MEFSCu1hS4-1" value="bus_id" style="text;strokeColor=none;fillColor=none;align=left;verticalAlign=top;spacingLeft=4;spacingRight=4;overflow=hidden;rotatable=0;points=[[0,0.5],[1,0.5]];portConstraint=eastwest;fontSize=18;fontColor=#FF66B3;" vertex="1" parent="cmdRNotz22MEFSCu1hS4-0">
                    <mxGeometry y="26" width="160" height="26" as="geometry"/>
                </mxCell>
                <mxCell id="cmdRNotz22MEFSCu1hS4-2" value="" style="line;strokeWidth=1;fillColor=none;align=left;verticalAlign=middle;spacingTop=-1;spacingLeft=3;spacingRight=3;rotatable=0;labelPosition=right;points=[];portConstraint=eastwest;fontSize=18;fontColor=#FF66B3;" vertex="1" parent="cmdRNotz22MEFSCu1hS4-0">
                    <mxGeometry y="52" width="160" height="8" as="geometry"/>
                </mxCell>
                <mxCell id="cmdRNotz22MEFSCu1hS4-3" value="model" style="text;strokeColor=none;fillColor=none;align=left;verticalAlign=top;spacingLeft=4;spacingRight=4;overflow=hidden;rotatable=0;points=[[0,0.5],[1,0.5]];portConstraint=eastwest;fontSize=18;fontColor=#FF66B3;" vertex="1" parent="cmdRNotz22MEFSCu1hS4-0">
                    <mxGeometry y="60" width="160" height="26" as="geometry"/>
                </mxCell>
                <mxCell id="cmdRNotz22MEFSCu1hS4-18" value="capacity" style="text;strokeColor=none;fillColor=none;align=left;verticalAlign=top;spacingLeft=4;spacingRight=4;overflow=hidden;rotatable=0;points=[[0,0.5],[1,0.5]];portConstraint=eastwest;fontSize=18;fontColor=#FF66B3;" vertex="1" parent="cmdRNotz22MEFSCu1hS4-0">
                    <mxGeometry y="86" width="160" height="26" as="geometry"/>
                </mxCell>
                <mxCell id="cmdRNotz22MEFSCu1hS4-19" value="capacity" style="text;strokeColor=none;fillColor=none;align=left;verticalAlign=top;spacingLeft=4;spacingRight=4;overflow=hidden;rotatable=0;points=[[0,0.5],[1,0.5]];portConstraint=eastwest;fontSize=18;fontColor=#FF66B3;" vertex="1" parent="cmdRNotz22MEFSCu1hS4-0">
                    <mxGeometry y="112" width="160" height="26" as="geometry"/>
                </mxCell>
                <mxCell id="cmdRNotz22MEFSCu1hS4-9" value="Route" style="swimlane;fontStyle=1;align=center;verticalAlign=top;childLayout=stackLayout;horizontal=1;startSize=26;horizontalStack=0;resizeParent=1;resizeParentMax=0;resizeLast=0;collapsible=1;marginBottom=0;fontSize=18;fontColor=#FF66B3;" vertex="1" parent="slJAHKkvd8Bo7gFiSA_M-1">
                    <mxGeometry x="350" y="70" width="160" height="138" as="geometry"/>
                </mxCell>
                <mxCell id="cmdRNotz22MEFSCu1hS4-10" value="route_id" style="text;strokeColor=none;fillColor=none;align=left;verticalAlign=top;spacingLeft=4;spacingRight=4;overflow=hidden;rotatable=0;points=[[0,0.5],[1,0.5]];portConstraint=eastwest;fontSize=18;fontColor=#FF66B3;" vertex="1" parent="cmdRNotz22MEFSCu1hS4-9">
                    <mxGeometry y="26" width="160" height="26" as="geometry"/>
                </mxCell>
                <mxCell id="cmdRNotz22MEFSCu1hS4-11" value="" style="line;strokeWidth=1;fillColor=none;align=left;verticalAlign=middle;spacingTop=-1;spacingLeft=3;spacingRight=3;rotatable=0;labelPosition=right;points=[];portConstraint=eastwest;fontSize=18;fontColor=#FF66B3;" vertex="1" parent="cmdRNotz22MEFSCu1hS4-9">
                    <mxGeometry y="52" width="160" height="8" as="geometry"/>
                </mxCell>
                <mxCell id="cmdRNotz22MEFSCu1hS4-12" value="distance" style="text;strokeColor=none;fillColor=none;align=left;verticalAlign=top;spacingLeft=4;spacingRight=4;overflow=hidden;rotatable=0;points=[[0,0.5],[1,0.5]];portConstraint=eastwest;fontSize=18;fontColor=#FF66B3;" vertex="1" parent="cmdRNotz22MEFSCu1hS4-9">
                    <mxGeometry y="60" width="160" height="26" as="geometry"/>
                </mxCell>
                <mxCell id="cmdRNotz22MEFSCu1hS4-14" value="source" style="text;strokeColor=none;fillColor=none;align=left;verticalAlign=top;spacingLeft=4;spacingRight=4;overflow=hidden;rotatable=0;points=[[0,0.5],[1,0.5]];portConstraint=eastwest;fontSize=18;fontColor=#FF66B3;" vertex="1" parent="cmdRNotz22MEFSCu1hS4-9">
                    <mxGeometry y="86" width="160" height="26" as="geometry"/>
                </mxCell>
                <mxCell id="cmdRNotz22MEFSCu1hS4-15" value="destination" style="text;strokeColor=none;fillColor=none;align=left;verticalAlign=top;spacingLeft=4;spacingRight=4;overflow=hidden;rotatable=0;points=[[0,0.5],[1,0.5]];portConstraint=eastwest;fontSize=18;fontColor=#FF66B3;" vertex="1" parent="cmdRNotz22MEFSCu1hS4-9">
                    <mxGeometry y="112" width="160" height="26" as="geometry"/>
                </mxCell>
            </root>
        </mxGraphModel>
    </diagram>
    <diagram id="nuci_8MCOoovHJpTfuPM" name="Table_Details">
        <mxGraphModel dx="548" dy="450" grid="1" gridSize="10" guides="1" tooltips="1" connect="1" arrows="1" fold="1" page="1" pageScale="1" pageWidth="827" pageHeight="1169" math="0" shadow="0">
            <root>
                <mxCell id="dGyI4_s9Sjr1th2zWghW-0"/>
                <mxCell id="dGyI4_s9Sjr1th2zWghW-1" parent="dGyI4_s9Sjr1th2zWghW-0"/>
            </root>
        </mxGraphModel>
    </diagram>
</mxfile>